<?xml version="1.0" encoding="UTF-8"?>
<svg width="66px" height="66px" viewBox="0 0 66 66" version="1.1" xmlns="http://www.w3.org/2000/svg" xmlns:xlink="http://www.w3.org/1999/xlink">
    <!-- Generator: Sketch 64 (93537) - https://sketch.com -->
    <title>icon_aquarium</title>
    <desc>Created with Sketch.</desc>
    <g id="Page-2" stroke="none" stroke-width="1" fill="none" fill-rule="evenodd">
        <g id="icon_aquarium" transform="translate(2.000000, 2.000000)" fill="#FFFFFF" stroke="#000000" stroke-width="3">
            <path d="M50.1864865,8.43769499e-15 C51.5746617,8.43769499e-15 52.7,1.12533833 52.7,2.51351351 C52.7,3.9016887 51.5746617,5.02702703 50.1864865,5.02702703 L46.0189255,5.02666571 C55.549499,10.7436717 62,21.7331357 62,34.3513514 C62,45.8292699 56.6626728,55.9595131 48.524786,61.9996297 L13.475214,61.9996297 C5.33732723,55.9595131 0,45.8292699 0,34.3513514 C0,21.7331357 6.450501,10.7436717 15.9810745,5.02666571 L11.8135135,5.02702703 C10.4253383,5.02702703 9.3,3.9016887 9.3,2.51351351 C9.3,1.12533833 10.4253383,8.43769499e-15 11.8135135,8.43769499e-15 L50.1864865,8.43769499e-15 Z" id="Path"></path>
        </g>
    </g>
</svg>