<?xml version="1.0" encoding="UTF-8"?>
<svg width="63px" height="62px" viewBox="0 0 63 62" version="1.1" xmlns="http://www.w3.org/2000/svg" xmlns:xlink="http://www.w3.org/1999/xlink">
    <!-- Generator: Sketch 64 (93537) - https://sketch.com -->
    <title>icon_plantes</title>
    <desc>Created with Sketch.</desc>
    <g id="Page-2" stroke="none" stroke-width="1" fill="none" fill-rule="evenodd">
        <g id="icon_plantes" stroke="#000000">
            <g id="plante-1" transform="translate(40.000000, 2.301887)">
                <path d="M12.6955437,10.8702079 C0.690599784,21.9776861 20.710483,44.5239596 4.2305966,50.4093567" id="Path-2"></path>
                <path d="M7.60974609,26.245331 C-1.96917206,15.429942 0.908787848,27.197893 8.7544524,31.3496795" id="Path-3"></path>
                <path d="M11.2906987,38.1133393 C-10.3994237,31.2945276 4.88281665,38.4318757 10.209114,40.2251996" id="Path-4"></path>
                <path d="M9.48651301,19.0065973 C23.7279999,16.9385952 23.4223041,15.7540761 10.1604894,22.63916" id="Path-5"></path>
                <path d="M10.6880345,32.3488489 C25.2179476,28.6374274 24.8249646,27.5350208 11.492311,35.81704" id="Path-6"></path>
                <path d="M7.75396636,18.4863803 C1.53663643,-6.13969471 35.5706554,-5.69739266 9.20505181,17.0408231" id="Path-7"></path>
            </g>
            <g id="plante-2" transform="translate(22.000000, 0.000000)">
                <path d="M12.3013101,40.2631644 C9.96013027,5.15664682 5.27461323,17.3613627 15.0544155,9.49696803e-15" id="Path"></path>
                <path d="M9.3549944,6.92607261 C8.73553878,5.06118104 8.11608316,3.19628948 7.49662753,1.33139792" id="Path-8"></path>
                <path d="M8.84288844,11.0099763 C8.32486703,9.0594865 7.80684563,7.10899673 7.28882422,5.15850695" id="Path-9"></path>
                <path d="M7.42348877,13.4008857 C7.06429359,12.0056784 6.70509841,10.6104712 6.34590323,9.21526403" id="Path-10"></path>
                <path d="M8.55362116,17.4101011 C7.29448972,16.8484563 6.03535828,16.2868115 4.77622685,15.7251667" id="Path-11"></path>
                <path d="M7.91094596,22.3034966 C6.23236254,20.8844096 4.55377912,19.4653226 2.8751957,18.0462355" id="Path-12"></path>
                <path d="M8.88887896,25.2786184 C7.44388841,25.1395447 5.99889785,25.000471 4.5539073,24.8613973" id="Path-13"></path>
                <path d="M10.0240488,29.2695065 C6.68269918,28.8452105 3.34134959,28.4209146 1.56319402e-14,27.9966186" id="Path-14"></path>
                <path d="M8.97209257,35.2173205 C7.30780749,35.1852134 5.6435224,35.1531063 3.97923731,35.1209992" id="Path-15"></path>
                <path d="M13.4782597,37.5100045 C16.1057821,34.0648401 18.7333045,30.6196757 21.3608269,27.1745113" id="Path-16"></path>
                <path d="M12.3824664,30.9958032 C13.0631466,30.974575 13.7438268,30.9533468 14.4245069,30.9321185" id="Path-17"></path>
                <path d="M10.7781818,29.5166643 C12.7586837,28.3252357 14.7391857,27.133807 16.7196876,25.9423784" id="Path-18"></path>
                <path d="M10.1976861,26.2679623 C12.1234301,24.3514447 14.0491741,22.4349271 15.9749181,20.5184095" id="Path-19"></path>
                <path d="M10.7317875,22.4713289 C12.2177824,20.4996343 13.7037773,18.5279396 15.1897722,16.556245" id="Path-20"></path>
                <path d="M9.17076315,18.0872475 C10.5491264,16.7731608 11.9274897,15.459074 13.3058529,14.1449873" id="Path-21"></path>
                <path d="M9.24519012,15.1040774 C10.9547095,13.3645967 12.6642288,11.6251161 14.3737482,9.88563538" id="Path-22"></path>
                <path d="M9.67046782,12.3063546 C11.5713516,10.9682596 13.4722353,9.63016459 15.3731191,8.29206958" id="Path-23"></path>
            </g>
            <g id="plante-3" transform="translate(3.000000, 6.905660)">
                <path d="M5.36306249,4.58629496 C22.5469902,13.0377555 2.15110217,31.4528713 15.318103,45.5229368" id="Path-24"></path>
                <path d="M10.9121141,12.6437096 C-12.2380599,2.70181858 8.64741905,-9.78133627 11.8865028,12.2348583" id="Path-25"></path>
                <path d="M12.1110378,19.9038378 C10.2456306,18.9518977 8.38022351,17.9999575 6.51481638,17.0480173" id="Path-26"></path>
                <path d="M11.1268476,19.9778693 C6.08484746,11.257162 -10.8264861,15.2776144 10.5263137,20.0378416 L11.1268476,19.9778693 Z" id="Path-27"></path>
                <path d="M12.4935646,9.50786866 C14.6366301,9.12047958 16.7796956,8.7330905 18.9227611,8.34570142" id="Path-28"></path>
                <path d="M11.7922207,10.1561036 C17.286153,-13.0074296 32.1300668,10.9073936 12.2915042,11.4847841" id="Path-29"></path>
                <path d="M12.347078,20.6339902 C13.8156772,19.8559971 15.2842763,19.078004 16.7528755,18.3000109" id="Path-30"></path>
                <path d="M12.6963525,19.4045969 C24.98559,14.1792711 19.0361044,19.2393564 14.155265,19.6425781" id="Path-31"></path>
                <path d="M10.9992939,27.3614943 C9.26958283,26.9459488 7.53987173,26.5304032 5.81016062,26.1148577" id="Path-32"></path>
                <path d="M10.236614,27.3909345 C-4.5233405,22.2207328 3.08731753,31.9524531 10.9705211,27.7455267" id="Path-33"></path>
                <path d="M11.3918137,26.4917973 C13.1757586,26.41913 14.9597034,26.3464627 16.7436483,26.2737954" id="Path-34"></path>
                <path d="M11.8996353,26.8878655 C23.7967337,12.9849729 18.6939741,40.3493271 12.8842658,26.7694727" id="Path-35"></path>
                <path d="M9.84495566,34.7750768 C8.32441999,34.1926616 6.80388432,33.6102464 5.28334866,33.0278313" id="Path-36"></path>
                <path d="M9.3945074,35.3490504 C3.84662992,21.7608208 -2.88841429,45.3399819 10.082336,35.8358877" id="Path-37"></path>
                <path d="M11.514524,37.8962954 C12.5566618,37.4533866 13.5987996,37.0104778 14.6409374,36.5675689" id="Path-38"></path>
                <path d="M11.378509,38.1997554 C18.336511,31.675408 26.8893847,37.2046355 11.4158198,37.7737297" id="Path-39"></path>
            </g>
            <path d="M0,59.5056166 C11.4381712,59.9975967 22.8704409,61.1599479 34.3145136,60.9815568 C43.4987355,60.8383923 52.6899192,60.0035109 61.799887,58.5422748 C62.3403621,58.4555828 61.6730797,56.7733845 61.1333407,56.6798249 L53.5109599,56.9603148 C51.0114696,56.5270478 48.5814939,55.4370221 46.2939968,54.1075411 C44.7394292,53.2040348 43.2727284,51.9350819 42.1263599,50.3436465 C40.260211,47.7529829 39.5953338,43.8540591 37.3805472,41.7335286 C36.450151,40.8427277 35.0654453,42.7551638 33.9135513,42.4803552 C32.8826963,42.2344231 32.3526933,40.295921 31.303209,40.2836518 C29.4347109,40.2618076 27.3273623,40.8023193 25.9570384,42.3873375 C24.3888171,44.2012587 24.7244882,47.7280827 23.2238154,49.6288778 C22.476736,50.5751499 20.9983499,49.3162183 20.0367511,49.8861427 C18.4790366,50.8093755 17.6647633,53.3814277 15.9938827,53.9139447 C12.786843,54.9360424 9.27500722,53.3072142 6.06965468,54.3375178 C4.36599399,54.8851293 3.31412346,57.0674967 1.93635784,58.4324862 L0,59.5056166 Z" id="sable" fill="#D8D8D8"></path>
        </g>
    </g>
</svg>